PathFileType	4	(X/Y/Z)	C:/Users/beibeiliu/ov580/test_trc/User3\sequence.22_training_dense_left.trc
DataRate	CameraRate	NumFrames	NumMarkers	Units	OrigDataRate	OrigDataStartFrame	OrigNumFrames
120	120	9	19	mm	120	33	262
Frame#	Time	ThumbCMC			ThumbMCP			ThumbIP			ThumbTip			IndexMCP			IndexPIP			IndexTip			MiddleMCP			MiddlePIP			MiddleTip			RingMCP			RingPIP			RingTip			PinkyMCP			PinkyPIP			PinkyTip			BackHand1			BackHand2			BackHand3	
		X0	Y0	Z0	X1	Y1	Z1	X2	Y2	Z2	X3	Y3	Z3	X4	Y4	Z4	X5	Y5	Z5	X6	Y6	Z6	X7	Y7	Z7	X8	Y8	Z8	X9	Y9	Z9	X10	Y10	Z10	X11	Y11	Z11	X12	Y12	Z12	X13	Y13	Z13	X14	Y14	Z14	X15	Y15	Z15	X16	Y16	Z16	X17	Y17	Z17	X18	Y18	Z18	
32	0.266667	-206.671	6.67422	32.166	-177.323	7.16247	16.9842	-153.309	7.74812	-1.55016	-142.704	-1.30823	-23.836	-218.142	30.2261	-37.958	-200.656	31.2549	-67.14	-174.253	19.2236	-76.8473	-230.644	14.1142	-52.28	-211.719	17.548	-80.1969	-177.029	3.64131	-85.4795	-236.048	-2.27191	-50.4964	-221.631	-2.13336	-76.3639	-192.248	-12.9147	-83.6299	-240.376	-27.38	-44.1232	-225.631	-19.0974	-64.7495	-200.25	-23.74	-76.7761	-257.935	-16.045	-5.69619	-262.128	-24.2328	25.0403	-245.507	4.56692	18.0679	
33	0.275	-201.219	-0.128335	34.0143	-174.775	-3.45369	11.9216	-154.705	-5.13758	-13.2564	-149.273	-13.5365	-32.251	-217.598	27.6797	-36.9666	-203.524	29.8881	-66.4967	-179.401	13.8981	-78.588	-230.511	22.0723	-50.2431	-215.758	21.8248	-77.7161	-187.868	1.9291	-88.2825	-239.646	5.48865	-49.7716	-227.911	3.89923	-74.7797	-201.698	-14.1132	-86.2456	-249.383	-16.694	-45.9157	-234.387	-13.2499	-64.7753	-216.637	-21.6999	-81.8583	-258.652	-6.12702	-0.840598	-264.691	-16.7497	24.301	-242.655	8.81297	21.2482	
34	0.283333	-199.964	-10.7964	31.6668	-173.778	-16.3204	9.42864	-159.976	-18.9379	-16.0251	-158.306	-25.3693	-41.547	-213.074	26.157	-34.2619	-201.408	24.5471	-68.5227	-186.682	8.09461	-81.6268	-229.653	24.3435	-48.5293	-216.823	19.7796	-78.7346	-193.637	-8.29125	-90.2496	-244.423	7.18631	-47.143	-229.035	6.86416	-75.5098	-210.695	-17.3899	-88.0691	-255.58	-14.9861	-39.8344	-240.854	-10.0776	-65.5332	-222.842	-20.1206	-81.3525	-258.056	-2.83498	2.75128	-264.998	-15.9376	30.9689	-237.953	6.20645	23.1899	
35	0.291667	-197.087	-19.9744	30.4145	-175.831	-24.6359	1.83712	-165.39	-29.3077	-22.2432	-165.55	-36.7145	-47.4459	-210.472	21.4893	-37.7843	-198.418	18.3182	-71.2726	-189.063	-1.87509	-84.716	-232.176	18.9971	-50.9824	-217.117	14.2573	-79.87	-199.615	-15.9398	-92.3859	-246.047	5.19836	-47.9407	-233.42	1.54592	-77.8183	-218.929	-21.8447	-88.4523	-257.101	-11.0497	-43.1783	-244.586	-12.49	-66.6679	-233.623	-26.0311	-82.5245	-259.519	-2.41495	1.38185	-265.357	-14.0699	30.3531	-233.148	0.907647	24.0757	
36	0.3	-195.565	-25.4995	27.1095	-177.605	-33.0289	-1.3559	-167.429	-39.5519	-25.89	-164.729	-47.9125	-53.038	-212.932	10.8353	-43.0127	-205.717	8.83429	-72.7343	-195.812	-15.9177	-88.9548	-230.408	11.7053	-50.9921	-218.952	6.86395	-81.3924	-209.818	-27.8373	-93.9712	-246.583	-0.867112	-47.4991	-237.894	-4.42333	-76.2312	-221.894	-34.8808	-89.0566	-256.157	-15.8417	-42.9928	-246.486	-18.6792	-65.141	-236.723	-36.1093	-84.6518	-259.979	-7.84658	3.16952	-262.544	-14.1503	29.6488	-230.581	-2.64324	21.4649	
37	0.308333	-195.87	-29.6238	23.3358	-176.533	-39.2062	-3.38756	-166.963	-48.6907	-25.7839	-165.9	-58.5438	-51.9658	-211.842	2.76468	-50.2729	-204.139	-4.38854	-78.8439	-193.1	-29.9014	-90.6548	-231.123	1.28738	-53.2912	-221.395	-7.09402	-85.0058	-212.813	-41.6055	-93.273	-247.454	-8.64608	-50.262	-235.422	-17.1558	-80.714	-227.967	-49.6113	-89.2787	-260.733	-23.6999	-39.9649	-251.285	-28.1507	-65.9727	-238.08	-41.5926	-81.454	-253.983	-10.2009	4.5607	-263.553	-16.6816	29.8899	-224.636	-3.57677	18.3326	
38	0.316667	-196.578	-32.2763	23.7285	-172.768	-46.1581	1.00167	-162.859	-56.7793	-25.0696	-168.752	-68.8866	-45.4903	-208.852	-7.02709	-48.2227	-199.356	-16.6579	-80.4099	-195.045	-44.4289	-91.0342	-224.659	-7.32249	-55.7427	-219.22	-21.6154	-87.0652	-211.012	-59.713	-91.7521	-241.853	-16.9476	-52.9567	-235.886	-29.0731	-80.7512	-227.149	-59.3392	-86.87	-256.2	-31.6379	-42.3047	-251.008	-38.8804	-66.0886	-238.127	-59.7006	-83.4714	-255.366	-16.0612	1.4426	-256.642	-17.0135	28.7022	-223.019	-5.94151	17.2633	
39	0.325	-195.97	-34.162	24.7018	-176.012	-49.0083	4.87696	-162.25	-63.0596	-23.4067	-167.891	-77.8424	-46.9763	-207.652	-17.4856	-54.6017	-200.171	-27.9825	-79.0746	-190.945	-59.1572	-88.4707	-227.129	-18.7391	-61.3689	-217.29	-36.7638	-87.5027	-209.846	-69.1825	-89.516	-239.619	-26.5856	-52.6427	-234.329	-42.8934	-79.8137	-225.938	-75.3153	-83.0157	-255.059	-39.7181	-43.8458	-247.291	-50.1503	-65.3682	-235.243	-72.6298	-76.9821	-251.653	-17.3893	0.237669	-258.136	-20.6015	27.4297	-221.371	-10.0464	17.5625	
40	0.333333	-188.431	-34.5797	25.9471	-171.313	-50.7834	5.12927	-157.832	-65.6652	-18.1252	-160.971	-83.0002	-39.405	-206.451	-25.2666	-54.6911	-196.171	-40.614	-78.2682	-190.041	-68.3325	-84.8089	-223.906	-27.6617	-60.5326	-214.393	-45.2816	-85.5305	-199.845	-80.4575	-84.8116	-239.945	-35.8478	-53.4386	-231.098	-51.6911	-78.3053	-218.235	-84.4153	-77.4322	-251.877	-46.2985	-38.7798	-245.78	-58.8409	-62.6054	-230.409	-78.8309	-73.182	-253.579	-23.4042	-4.1445	-256.363	-21.8201	27.2128	-223.506	-11.6602	15.1981	
